<svg xmlns="http://www.w3.org/2000/svg" viewBox="0 0 150.58 44.07"><defs><style>.cls-1{fill:#254ccd;}.cls-2{fill:#254ccf;}.cls-3{fill:#00c9ff;}</style></defs><g id="Capa_2" data-name="Capa 2"><g id="Capa_1-2" data-name="Capa 1"><path class="cls-1" d="M17.42,35.09a18.21,18.21,0,0,0,10.29-2.75l2.67,6.44a21.72,21.72,0,0,1-10.75,3.58A21.9,21.9,0,0,1,9.84,41.1,15,15,0,0,1,0,27.06,15.06,15.06,0,0,1,7.78,13.43a18,18,0,0,1,15.44-.9c6.77,2.76,9.92,10,8.14,17H9.57C10.14,33.08,13.9,35,17.42,35.09Zm5.37-11.27a5.74,5.74,0,0,0-4.06-5.24c-3.88-1.15-8.6.83-9.23,5.24Z"/><path class="cls-1" d="M65.84,19.07V41.7h-9V19.08l-4.42,0,0-6.89,4.44-.05C56.65,7.19,58.32,2.41,63.39.72A14.8,14.8,0,0,1,73.3,1l-.73,6.74a8.64,8.64,0,0,0-4.25-.56c-2.54.46-2.58,2.67-2.46,4.92Z"/><path class="cls-2" d="M150.58,35.68v7.18C145.71,45.1,138,44.45,135.76,39a12.51,12.51,0,0,1-.93-4.74l0-13.54-4.41-.06v-6.9l4.42,0V6.55h9V33.45a3,3,0,0,0,3,3.08A9.86,9.86,0,0,0,150.58,35.68Z"/><rect class="cls-1" x="39.57" y="18.36" width="7.02" height="14.96" transform="translate(17.22 68.91) rotate(-89.97)"/><rect class="cls-1" x="63.44" y="12.02" width="7.03" height="7.03"/><path class="cls-3" d="M115.43,32.18c3.71,4,9.64,3,13.88.26.1-.07.33-.14.4-.08a1.09,1.09,0,0,1,.21.45l0,7.32a16.3,16.3,0,0,1-6.77,2.17c-9.7,1.15-18.62-4.78-19-14.9a15.14,15.14,0,0,1,8-14.08,18.24,18.24,0,0,1,17.58.28s-.27,7.15-.42,7.75a12,12,0,0,0-9.73-2.3,7.73,7.73,0,0,0-6.14,7.69A7.85,7.85,0,0,0,115.43,32.18Z"/><path class="cls-2" d="M102.34,27.28a16.4,16.4,0,0,1,4-11.6v-4H97.65l-.09,3.08c-3.17-3.94-8-4.66-12.66-3.57A15.46,15.46,0,0,0,73.05,26.89a15.53,15.53,0,0,0,5.8,11.74,15.23,15.23,0,0,0,13.46,2.79A10.87,10.87,0,0,0,97.56,38l.11,3.22h8.72V37.67A16,16,0,0,1,102.34,27.28Zm-6.15,3.89A7.51,7.51,0,0,1,87.74,34c-4.78-1.41-6.65-7-4.67-11.23a7.58,7.58,0,0,1,14.47,2.53A8.78,8.78,0,0,1,96.19,31.17Z"/></g></g></svg>