<?xml version="1.0" encoding="UTF-8"?>
<svg id="Layer_2" data-name="Layer 2" xmlns="http://www.w3.org/2000/svg" viewBox="0 0 177.32 46.19">
  <defs>
    <style>
      .cls-1 {
        fill: #231f20;
      }

      .cls-2 {
        fill: #00ceb0;
      }

      .cls-3 {
        fill: #50f9dd;
      }
    </style>
  </defs>
  <g id="Capa_1" data-name="Capa 1">
    <path class="cls-2" d="M8.9,30.39c3.37,2.41,8.12,1.23,11.62-.71l2.05,4.61c-4.59,3.28-11.74,3.76-16.74,1.14C2.07,33.46-.06,29.71,0,25.49c.06-4.16,2.15-7.77,5.83-9.77,2.15-1.17,4.54-1.55,7.04-1.48,3.23.1,6.27,1.29,8.37,3.78,2.21,2.64,2.87,6.15,2.05,9.53l-16.21-.02c.18,1.34.88,2.18,1.82,2.86ZM16.92,23.35c-.25-2.36-1.84-3.64-3.83-4.01-2.73-.38-5.73,1.09-6.02,4.04l9.85-.03Z"/>
    <path class="cls-2" d="M83.34,34.48c-2.34,1.88-5.08,2.57-8.01,2.66-4,.12-7.73-1.37-10.28-4.46-3.31-4.02-3.29-10.29.27-14.28,2.45-2.75,5.94-4.15,9.64-4.07,3.06-.08,5.95.79,8.32,2.67,5.5,4.36,5.7,12.96.05,17.49ZM80.97,25.74c0-3.26-2.64-5.9-5.9-5.9s-5.9,2.64-5.9,5.9,2.64,5.9,5.9,5.9,5.9-2.64,5.9-5.9Z"/>
    <path class="cls-2" d="M103.11,20.46c-1.4-.9-2.97-.77-4.38-.03-1.06.56-2.25,1.92-2.26,3.41l-.05,12.7h-6.48s0-21.35,0-21.35h6.13s.14,2.75.14,2.75c1.72-2.5,4.14-3.66,7.08-3.61,3.58.06,6.7,2.14,7.65,5.65.33,1.24.5,2.55.5,3.87v12.69s-6.45,0-6.45,0l-.1-12.81c0-1.26-.74-2.59-1.79-3.26Z"/>
    <polygon class="cls-3" points="170.13 35.99 162.83 36.03 158.49 29.9 154.26 36.01 146.93 35.99 154.68 25.13 146.85 14.55 154.42 14.65 158.55 20.49 162.61 14.65 169.94 14.77 162.33 25.13 170.13 35.99"/>
    <path class="cls-2" d="M49.28,28.16c1.89,4.29,7.65,4.24,11.57,1.43l.02,5.85c-4.29,2.31-9.44,2.27-13.53-.23-2.88-1.76-4.76-4.58-5.2-7.89-.96-7.17,4.13-12.63,11.1-12.98,2.68-.13,5.22.25,7.52,1.63l-.11,5.66c-1.91-1.1-3.62-1.91-5.77-1.85-1.74.05-3.52.61-4.68,1.94-1.54,1.77-1.89,4.22-.91,6.45Z"/>
    <path class="cls-2" d="M126.92,31.02v5.15c-2.24,1.05-4.73,1.25-7.06.51-3.28-1.03-4.41-3.96-4.41-7.17l-.02-9.32-3.19-.06.03-4.94,3.18-.02.02-5.38,6.51.02-.03,5.34v5.01s.06,9.35.06,9.35c0,1.19.96,2.06,2.07,2.12.98.05,1.86-.29,2.85-.61Z"/>
    <rect class="cls-2" x="26.77" y="22.54" width="11.94" height="4.9"/>
    <rect class="cls-3" x="122.57" y="15.08" width="5.01" height="5.13"/>
    <g>
      <path class="cls-1" d="M4.79,46.15c-.34,0-.66-.06-.95-.17-.29-.12-.54-.28-.75-.48-.21-.21-.38-.45-.5-.73-.12-.28-.18-.59-.18-.92s.06-.64.18-.92c.12-.28.29-.53.5-.73.21-.21.47-.37.76-.48.29-.11.61-.17.95-.17s.64.05.93.17.54.28.73.5l-.31.31c-.19-.19-.39-.33-.62-.41-.22-.08-.47-.13-.73-.13s-.53.05-.76.14c-.23.09-.44.22-.61.4-.17.17-.31.37-.41.6-.1.23-.15.48-.15.75s.05.52.15.75.23.43.41.6c.17.17.38.3.61.4.23.09.49.14.76.14s.5-.04.73-.13c.23-.09.43-.23.62-.42l.31.31c-.2.22-.44.39-.73.5s-.6.17-.93.17Z"/>
      <path class="cls-1" d="M11.96,46.15c-.34,0-.66-.06-.95-.17-.29-.12-.54-.28-.76-.49-.21-.21-.38-.46-.5-.73s-.18-.59-.18-.92.06-.64.18-.92.29-.52.5-.73c.21-.21.47-.37.76-.49.29-.11.61-.17.96-.17s.66.06.95.17c.29.12.54.28.76.48.21.21.38.45.5.73.12.28.18.59.18.92s-.06.64-.18.92c-.12.28-.29.53-.5.73-.21.21-.47.37-.76.48-.29.11-.61.17-.95.17ZM11.96,45.73c.27,0,.52-.05.76-.14.23-.09.43-.23.6-.4.17-.17.3-.37.4-.6.1-.23.14-.48.14-.75s-.05-.52-.14-.75c-.09-.23-.23-.43-.4-.6-.17-.17-.37-.3-.6-.4-.23-.09-.48-.14-.76-.14s-.53.05-.76.14c-.23.09-.44.22-.61.4-.17.17-.31.37-.4.6-.1.23-.15.48-.15.75s.05.52.15.75.23.43.4.6c.17.17.37.3.61.4.23.09.49.14.76.14Z"/>
      <path class="cls-1" d="M18.19,46.12v-4.55h.4l3.14,3.95h-.21v-3.95h.47v4.55h-.4l-3.13-3.95h.21v3.95h-.48Z"/>
      <path class="cls-1" d="M27.13,46.12v-4.13h-1.6v-.42h3.68v.42h-1.6v4.13h-.48Z"/>
      <path class="cls-1" d="M31.79,46.12l2.08-4.55h.47l2.08,4.55h-.51l-1.91-4.27h.19l-1.91,4.27h-.5ZM32.61,44.9l.14-.39h2.64l.14.39h-2.93Z"/>
      <path class="cls-1" d="M39.95,46.12v-4.55h1.96c.51,0,.9.1,1.18.3.28.2.42.49.42.86,0,.25-.06.46-.17.62-.11.17-.27.3-.47.38-.2.09-.41.13-.65.13l.11-.16c.29,0,.54.04.75.13s.37.22.49.4c.12.17.18.39.18.65,0,.39-.14.68-.43.9-.28.21-.71.32-1.28.32h-2.09ZM40.43,45.72h1.6c.4,0,.7-.07.92-.2.21-.14.32-.35.32-.65s-.11-.51-.32-.65c-.21-.14-.52-.2-.92-.2h-1.66v-.4h1.5c.36,0,.65-.07.85-.21s.3-.34.3-.62-.1-.48-.3-.62-.48-.21-.85-.21h-1.45v3.75Z"/>
      <path class="cls-1" d="M47.63,46.12v-4.55h.48v4.55h-.48Z"/>
      <path class="cls-1" d="M52.36,46.12v-4.55h.48v4.13h2.55v.42h-3.03Z"/>
      <path class="cls-1" d="M58.96,46.12v-4.55h.48v4.55h-.48Z"/>
      <path class="cls-1" d="M63.7,46.12v-4.55h1.85c.49,0,.91.1,1.28.29.37.19.65.46.85.8.2.34.31.74.31,1.18s-.1.84-.31,1.18c-.2.34-.49.61-.85.8s-.79.29-1.28.29h-1.85ZM64.18,45.7h1.34c.4,0,.75-.08,1.05-.24.3-.16.53-.38.69-.66.17-.28.25-.6.25-.96s-.08-.69-.25-.97c-.16-.28-.4-.5-.69-.65-.3-.16-.65-.24-1.05-.24h-1.34v3.72Z"/>
      <path class="cls-1" d="M71.04,46.12l2.08-4.55h.47l2.08,4.55h-.51l-1.91-4.27h.19l-1.91,4.27h-.5ZM71.86,44.9l.14-.39h2.64l.14.39h-2.93Z"/>
      <path class="cls-1" d="M79.2,46.12v-4.55h1.85c.49,0,.91.1,1.28.29.37.19.65.46.85.8.2.34.31.74.31,1.18s-.1.84-.31,1.18c-.2.34-.49.61-.85.8s-.79.29-1.28.29h-1.85ZM79.68,45.7h1.34c.4,0,.75-.08,1.05-.24.3-.16.53-.38.69-.66.17-.28.25-.6.25-.96s-.08-.69-.25-.97c-.16-.28-.4-.5-.69-.65-.3-.16-.65-.24-1.05-.24h-1.34v3.72Z"/>
      <path class="cls-1" d="M92.9,46.12v-1.69l.11.3-1.93-3.16h.51l1.7,2.77h-.27l1.7-2.77h.48l-1.93,3.16.11-.3v1.69h-.47Z"/>
      <path class="cls-1" d="M103.58,46.12l.73-3.69h-1.46l.18-.86h3.96l-.17.86h-1.45l-.74,3.69h-1.05Z"/>
      <path class="cls-1" d="M109.43,46.12l.91-4.55h1.85c.57,0,1.01.12,1.32.37s.46.59.46,1.04c0,.38-.09.71-.27.99-.18.28-.44.49-.77.65-.33.15-.72.23-1.17.23h-1.48l.55-.46-.34,1.73h-1.06ZM110.8,44.5l-.36-.5h1.36c.35,0,.62-.08.82-.24.19-.16.29-.39.29-.69,0-.22-.08-.38-.22-.49-.15-.11-.36-.16-.63-.16h-1.28l.55-.51-.52,2.59ZM112.35,46.12l-.93-1.65h1.1l.94,1.65h-1.11Z"/>
      <path class="cls-1" d="M116.98,46.12l.91-4.55h1.06l-.91,4.55h-1.06Z"/>
      <path class="cls-1" d="M121.88,46.12l.91-4.55h2.2c.49,0,.87.09,1.13.27.26.18.39.44.39.77,0,.29-.08.53-.22.72-.15.2-.35.34-.59.44-.25.1-.52.15-.81.15l.17-.26c.38,0,.68.09.91.26s.34.43.34.76-.09.59-.26.8c-.17.21-.42.37-.72.48-.31.1-.66.16-1.06.16h-2.38ZM123.09,45.32h1.24c.29,0,.52-.05.68-.17.17-.11.25-.27.25-.49,0-.17-.06-.29-.19-.36-.12-.07-.29-.11-.5-.11h-1.39l.16-.77h1.18c.18,0,.34-.02.47-.07.13-.05.23-.12.3-.22s.1-.22.1-.35c0-.15-.06-.26-.18-.33-.12-.07-.28-.1-.49-.1h-1.07l-.58,2.96Z"/>
      <path class="cls-1" d="M131.72,46.19c-.45,0-.82-.09-1.11-.26-.29-.17-.5-.42-.62-.72s-.14-.67-.05-1.09l.51-2.55h1.05l-.51,2.53c-.08.41-.05.71.1.91s.4.3.74.3c.32,0,.57-.09.76-.28.19-.19.33-.49.41-.92l.51-2.53h1.04l-.52,2.59c-.13.67-.4,1.18-.78,1.52-.39.34-.9.51-1.54.51Z"/>
      <path class="cls-1" d="M138.24,46.12l.73-3.69h-1.46l.18-.86h3.96l-.17.86h-1.45l-.74,3.69h-1.05Z"/>
      <path class="cls-1" d="M143.26,46.12l2.94-4.55h1.05l1.12,4.55h-1.05l-.88-4.03h.42l-2.46,4.03h-1.12ZM144.47,45.14l.43-.8h2.34l.12.8h-2.9Z"/>
      <path class="cls-1" d="M153.93,46.19c-.46,0-.86-.08-1.2-.25-.34-.17-.59-.4-.78-.7-.18-.3-.27-.64-.27-1.03s.07-.75.21-1.08c.14-.33.33-.62.58-.87.25-.24.55-.44.89-.57.34-.14.73-.21,1.15-.21s.77.07,1.08.21.55.34.71.6l-.76.62c-.12-.17-.27-.3-.45-.4-.18-.09-.4-.14-.65-.14s-.49.04-.7.13-.39.21-.54.38-.26.35-.34.57-.12.45-.12.69c0,.23.05.43.15.6.1.17.25.3.44.4.19.09.42.14.69.14.23,0,.45-.04.66-.13.2-.08.39-.22.55-.4l.62.64c-.24.28-.52.48-.85.6-.33.12-.69.19-1.08.19Z"/>
      <path class="cls-1" d="M159.08,46.12l.91-4.55h1.06l-.91,4.55h-1.06Z"/>
      <path class="cls-1" d="M166.34,46.19c-.46,0-.85-.08-1.19-.25-.33-.17-.59-.4-.76-.7s-.27-.64-.27-1.03.07-.75.2-1.08c.13-.33.33-.62.58-.86.25-.24.55-.44.89-.57.34-.14.73-.21,1.15-.21.46,0,.85.08,1.19.25.33.17.58.4.76.7.18.3.27.64.27,1.03s-.07.75-.2,1.08c-.13.33-.33.62-.58.86-.25.25-.55.44-.89.58-.34.14-.73.21-1.15.21ZM166.43,45.3c.25,0,.49-.05.69-.14s.38-.22.52-.39c.14-.16.25-.35.33-.57.08-.21.11-.44.11-.68,0-.23-.05-.42-.14-.59-.1-.17-.24-.3-.42-.4-.18-.09-.41-.14-.68-.14s-.48.05-.69.14c-.2.09-.38.22-.52.39-.15.16-.26.35-.33.57-.08.21-.11.44-.11.68,0,.22.05.42.15.59.1.17.24.3.42.4.18.09.41.14.67.14ZM166.55,41.2l.97-.93h1.12l-1.27.93h-.82Z"/>
      <path class="cls-1" d="M172.24,46.12l.91-4.55h.87l1.96,3.29-.34-.02.65-3.27h1.04l-.91,4.55h-.86l-1.96-3.29.35.02-.66,3.27h-1.04Z"/>
    </g>
    <path class="cls-2" d="M145.51,15.42l.47,1.88c-1.72-2.05-4.06-2.96-6.72-2.95-5.73.02-10.58,4.31-11.11,10.03-.33,3.55.64,6.88,3.1,9.35,3.97,3.99,10.66,4.89,14.73.5l.08,2.3h6.27s0-12.17,0-12.17l-6.82-8.94ZM140.45,31.47c-3.19,0-5.77-2.59-5.77-5.77s2.59-5.77,5.77-5.77,5.77,2.59,5.77,5.77-2.59,5.77-5.77,5.77Z"/>
    <g>
      <g>
        <path class="cls-2" d="M5.86,1.43c.89,0,1.04.18,1.43.73l4.54,6.02c.04.06.09.09.16.09h.11c.06,0,.1-.04.1-.12V1.7c0-.19.09-.27.27-.27h1.32c.18,0,.27.09.27.27v7.08c0,.98-.33,1.28-1.11,1.28h-1.1c-.89,0-1.04-.19-1.42-.73L5.88,3.32c-.05-.06-.09-.09-.16-.09h-.11c-.07,0-.1.04-.1.12v6.44c0,.19-.1.27-.27.27h-1.32c-.19,0-.27-.09-.27-.27V2.72c0-.97.32-1.28,1.1-1.28h1.11Z"/>
        <path class="cls-2" d="M17.63,3.3c.19,0,.27.1.27.27v3.59c0,1.09.25,1.35,1.27,1.35h3.17c1.06,0,1.36-.3,1.36-1.35v-3.59c0-.17.1-.27.27-.27h1.21c.19,0,.27.1.27.27v4.01c0,1.83-.75,2.49-2.94,2.49h-3.44c-2.17,0-2.93-.67-2.93-2.49V3.57c0-.17.09-.27.27-.27h1.21Z"/>
        <path class="cls-2" d="M36.69,3.3c2.17,0,2.93.68,2.93,2.49v4.01c0,.19-.09.27-.27.27h-1.21c-.18,0-.27-.09-.27-.27v-3.58c0-1.1-.25-1.36-1.27-1.36h-2.18v4.94c0,.19-.09.27-.27.27h-1.21c-.19,0-.27-.09-.27-.27v-4.94h-2.1c-1.06,0-1.35.31-1.35,1.36v3.58c0,.19-.09.27-.27.27h-1.21c-.18,0-.27-.09-.27-.27v-4.01c0-1.81.75-2.49,2.93-2.49h6.31Z"/>
        <path class="cls-2" d="M47.93,3.3c1.65,0,2.14.49,2.14,2.02v1.27c0,.51-.21.69-.7.69h-6.23v.22c0,.78.3,1.04,1.36,1.04h5.15c.15,0,.22.07.22.22v1.09c0,.15-.07.22-.22.22h-5.32c-2.19,0-2.94-.67-2.94-2.49v-1.79c0-1.81.75-2.49,2.94-2.49h3.62ZM48.12,6.01c.15,0,.21-.07.21-.21v-.43c0-.48-.15-.6-.75-.6h-3.09c-1.1,0-1.36.22-1.36,1v.25h4.99ZM47.3,0c.18,0,.26.12.17.3l-1.27,2.27c-.12.22-.21.28-.37.28h-.94c-.2,0-.27-.12-.19-.3l1.11-2.27c.1-.2.21-.28.38-.28h1.1Z"/>
        <path class="cls-2" d="M58.24,3.3c.15,0,.22.07.22.22v1.09c0,.15-.07.22-.22.22h-3.28c-1.07,0-1.35.27-1.35,1.31v3.67c0,.19-.09.27-.27.27h-1.21c-.18,0-.27-.09-.27-.27v-4.01c0-1.81.75-2.49,2.93-2.49h3.46Z"/>
        <path class="cls-2" d="M61.46.79c.18,0,.27.09.27.27v1.17c0,.19-.09.28-.27.28h-1.21c-.19,0-.27-.1-.27-.28v-1.17c0-.18.09-.27.27-.27h1.21ZM61.46,3.3c.17,0,.27.1.27.27v6.23c0,.19-.1.27-.27.27h-1.21c-.19,0-.27-.09-.27-.27V3.57c0-.17.09-.27.27-.27h1.21Z"/>
        <path class="cls-2" d="M71.4,3.3c.15,0,.22.07.22.22v1.09c0,.15-.07.22-.22.22h-4.79c-1.07,0-1.34.27-1.34,1.31v1.1c0,1.04.27,1.31,1.34,1.31h4.79c.15,0,.22.07.22.22v1.09c0,.15-.07.22-.22.22h-4.96c-2.18,0-2.94-.67-2.94-2.49v-1.79c0-1.81.75-2.49,2.94-2.49h4.96Z"/>
        <path class="cls-2" d="M78.77,3.3c2.18,0,2.94.68,2.94,2.49v3.3c0,.79-.18.99-.91.99h-5.88c-1.42,0-1.9-.48-1.9-1.75v-.59c0-1.15.57-1.7,1.9-1.7h5.04v-.12c0-.79-.3-1.07-1.36-1.07h-5.15c-.15,0-.22-.07-.22-.22v-1.09c0-.15.07-.22.22-.22h5.32ZM79.95,8.2v-.9h-4.52c-.53,0-.68.15-.68.52v.26c0,.42.15.53.68.53h4.13c.27,0,.38-.11.38-.41Z"/>
      </g>
      <circle class="cls-2" cx="4.59" cy="8.67" r="1.64"/>
      <circle class="cls-2" cx="13.16" cy="2.69" r="1.64"/>
    </g>
  </g>
</svg>